<svg xmlns="http://www.w3.org/2000/svg" version="1.1" xmlns:xlink="http://www.w3.org/1999/xlink" xmlns:svgjs="http://svgjs.dev/svgjs" width="2000" height="1247" viewBox="0 0 2000 1247"><g transform="matrix(1,0,0,1,-1.2121211246939083,0.504858299595071)"><svg viewBox="0 0 396 247" data-background-color="#ffffff" preserveAspectRatio="xMidYMid meet" height="1247" width="2000" xmlns="http://www.w3.org/2000/svg" xmlns:xlink="http://www.w3.org/1999/xlink"><g id="tight-bounds" transform="matrix(1,0,0,1,0.24000001731053544,-0.09999999999999432)"><svg viewBox="0 0 395.52 247.2" height="247.2" width="395.52"><g><svg></svg></g><g><svg viewBox="0 0 395.52 247.2" height="247.2" width="395.52"><g><g><path xmlns="http://www.w3.org/2000/svg" d="M153.889 244.838c-7.292-1.555-10.938-4.423-10.938-8.605 0-0.911 0.348-3.002 1.046-6.273 0.643-3.271 1.528-6.3 2.654-9.088 1.072-2.734 2.466-4.102 4.182-4.101 0.268 0 1.716 0.268 4.343 0.804 3.378 0.751 6.353 1.367 8.927 1.85 2.52 0.429 5.442 0.643 8.766 0.643 17.264 0 29.73-3.378 37.397-10.133 2.602-2.327 4.759-5.136 6.471-8.427l32.304 0c-2.927 10.326-7.676 19.086-14.246 26.281-11.849 12.921-30.615 19.382-56.296 19.382-9.168 0-17.371-0.777-24.61-2.333zM221.686 7.83c0-5.201 4.665-7.801 13.994-7.801h2.734c9.436 0 14.155 2.6 14.155 7.801l0 37.862h-30.883z" fill="#ffffff" fill-rule="nonzero" stroke="none" stroke-width="1" stroke-linecap="butt" stroke-linejoin="miter" stroke-miterlimit="10" stroke-dasharray="" stroke-dashoffset="0" font-family="none" font-weight="none" font-size="none" text-anchor="none" style="mix-blend-mode: normal" data-fill-palette-color="tertiary"></path></g></g><g transform="matrix(1,0,0,1,0,63.29272686533721)"><svg viewBox="0 0 395.52 120.61454626932557" height="120.61454626932557" width="395.52"><g><svg viewBox="0 0 395.52 120.61454626932557" height="120.61454626932557" width="395.52"><g><svg viewBox="0 0 395.52 120.61454626932557" height="120.61454626932557" width="395.52"><g><svg viewBox="0 0 395.52 120.61454626932557" height="120.61454626932557" width="395.52"><g id="textblocktransform"><svg viewBox="0 0 395.52 120.61454626932557" height="120.61454626932557" width="395.52" id="textblock"><g><svg viewBox="0 0 395.52 120.61454626932557" height="120.61454626932557" width="395.52"><g transform="matrix(1,0,0,1,0,0)"><svg width="395.52" viewBox="0.24000000953674316 -32.810001373291016 108.95000457763672 33.22999954223633" height="120.61454626932557" data-palette-color="#010c80"><path d="M4.66 0.24Q2.95 0.24 1.6-0.05 0.24-0.34 0.24-1.12L0.24-1.12Q0.24-1.29 0.37-1.9 0.49-2.51 0.7-3.03 0.9-3.54 1.22-3.54L1.22-3.54Q1.27-3.54 1.76-3.44L1.76-3.44Q2.39-3.3 2.87-3.21 3.34-3.13 3.96-3.13L3.96-3.13Q7.18-3.13 8.61-4.39 10.03-5.66 10.03-8.47L10.03-8.47 10.03-29.52Q10.03-30.49 11.77-30.49L11.77-30.49 12.11-30.49Q13.87-30.49 13.87-29.52L13.87-29.52 13.87-8.91Q13.87-4.59 11.66-2.17 9.45 0.24 4.66 0.24L4.66 0.24ZM29.9 0.24Q25 0.24 22.42-2.7 19.85-5.64 19.85-11.25L19.85-11.25Q19.85-16.87 22.46-19.91 25.07-22.95 29.9-22.95L29.9-22.95Q34.69-22.95 37.23-19.93 39.77-16.92 39.77-11.25L39.77-11.25Q39.77-5.62 37.27-2.69 34.76 0.24 29.9 0.24L29.9 0.24ZM29.78-2.88Q32.96-2.88 34.47-4.94 35.98-7.01 35.98-11.33L35.98-11.33Q35.98-15.67 34.47-17.75 32.96-19.82 29.78-19.82L29.78-19.82Q26.63-19.82 25.14-17.76 23.65-15.7 23.65-11.33L23.65-11.33Q23.65-6.98 25.13-4.93 26.61-2.88 29.78-2.88L29.78-2.88ZM50.58 0.42Q48.75 0.42 47.16-0.05 45.58-0.51 44.64-1.18 43.7-1.86 43.7-2.37L43.7-2.37Q43.7-2.61 43.95-3.15 44.21-3.69 44.56-4.11 44.92-4.54 45.21-4.54L45.21-4.54Q45.28-4.54 45.65-4.3L45.65-4.3Q46.63-3.66 47.71-3.22 48.8-2.78 50.31-2.78L50.31-2.78Q54.56-2.78 54.56-6.3L54.56-6.3Q54.56-7.3 54.16-7.98 53.75-8.67 52.81-9.19 51.87-9.72 50.24-10.21L50.24-10.21Q47.9-10.89 46.59-11.77 45.28-12.65 44.75-13.83 44.21-15.01 44.21-16.7L44.21-16.7Q44.21-18.51 45.12-19.95 46.04-21.39 47.69-22.19 49.34-23 51.41-23L51.41-23Q52.85-23 54.18-22.73 55.51-22.46 56.33-22.03 57.15-21.61 57.15-21.14L57.15-21.14Q57.15-20.8 56.92-20.23 56.68-19.65 56.34-19.23 56-18.8 55.73-18.8L55.73-18.8Q55.68-18.8 55.12-19.1 54.56-19.41 53.69-19.67 52.83-19.92 51.78-19.92L51.78-19.92Q50.12-19.92 49.03-19.18 47.94-18.43 47.94-17.19L47.94-17.19Q47.94-15.72 48.73-14.84 49.51-13.96 51.31-13.4L51.31-13.4Q54.1-12.55 55.56-11.69 57.03-10.84 57.65-9.61 58.27-8.37 58.27-6.37L58.27-6.37Q58.27-4.47 57.25-2.92 56.22-1.37 54.46-0.48 52.7 0.42 50.58 0.42L50.58 0.42ZM65.57 0.07Q64.64 0.07 64.23-0.16 63.81-0.39 63.81-0.88L63.81-0.88 63.81-16.11Q63.81-18.95 63.54-20.2 63.27-21.46 63.27-21.58L63.27-21.58Q63.27-22.12 64.09-22.35 64.91-22.58 65.64-22.58L65.64-22.58Q66.25-22.58 66.55-21.92 66.84-21.26 66.97-20.58 67.11-19.9 67.16-19.7L67.16-19.7Q68.52-21.24 70.32-22.09 72.11-22.95 73.94-22.95L73.94-22.95Q77.26-22.95 79.13-21.08 81-19.21 81-15.94L81-15.94 81-0.88Q81-0.39 80.58-0.16 80.17 0.07 79.26 0.07L79.26 0.07 79.07 0.07Q78.19 0.07 77.78-0.16 77.36-0.39 77.36-0.88L77.36-0.88 77.36-15.58Q77.36-17.58 76.2-18.69 75.04-19.8 72.94-19.8L72.94-19.8Q71.48-19.8 70-18.98 68.52-18.16 67.45-16.75L67.45-16.75 67.45-0.88Q67.45-0.39 67.03-0.16 66.62 0.07 65.74 0.07L65.74 0.07 65.57 0.07ZM89.76-28.17Q88.03-28.17 88.03-29.13L88.03-29.13 88.03-31.69Q88.03-32.64 89.76-32.64L89.76-32.64 90.27-32.64Q92.03-32.64 92.03-31.69L92.03-31.69 92.03-29.13Q92.03-28.17 90.27-28.17L90.27-28.17 89.76-28.17ZM89.93 0.07Q88.2 0.07 88.2-0.88L88.2-0.88 88.2-21.83Q88.2-22.78 89.93-22.78L89.93-22.78 90.1-22.78Q91.86-22.78 91.86-21.83L91.86-21.83 91.86-0.88Q91.86 0.07 90.1 0.07L90.1 0.07 89.93 0.07ZM102.16 0.07Q101.26 0.07 100.84-0.16 100.43-0.39 100.43-0.88L100.43-0.88 100.43-19.58 98.69-19.58Q97.81-19.58 97.81-20.87L97.81-20.87 97.81-21.41Q97.81-22.71 98.69-22.71L98.69-22.71 100.43-22.71 100.43-26.83Q100.43-30.25 102.12-31.53 103.82-32.81 106.02-32.81L106.02-32.81Q109.19-32.81 109.19-31.49L109.19-31.49Q109.19-31.27 109.08-30.77 108.97-30.27 108.76-29.88 108.56-29.49 108.29-29.49L108.29-29.49Q108.14-29.49 107.68-29.59 107.21-29.69 106.41-29.69L106.41-29.69Q105.68-29.69 105.18-29.47 104.68-29.25 104.37-28.54 104.06-27.83 104.06-26.49L104.06-26.49 104.06-22.71 107.85-22.71Q108.31-22.71 108.52-22.4 108.73-22.09 108.73-21.41L108.73-21.41 108.73-20.87Q108.73-20.19 108.52-19.89 108.31-19.58 107.85-19.58L107.85-19.58 104.06-19.58 104.06-0.88Q104.06-0.39 103.65-0.16 103.23 0.07 102.36 0.07L102.36 0.07 102.16 0.07Z" opacity="1" transform="matrix(1,0,0,1,0,0)" fill="#ffffff" class="undefined-text-0" data-fill-palette-color="primary" id="text-0"></path></svg></g></svg></g></svg></g></svg></g><g></g></svg></g></svg></g></svg></g></svg></g><defs></defs></svg><rect width="395.52" height="247.2" fill="none" stroke="none" visibility="hidden"></rect></g></svg></g></svg>